/* XPM */
static char *ciaopreprocsee[]={
"24 24 23 1",
". c None",
"c c #000000",
"k c #008000",
"l c #00c000",
"t c #00ff00",
"j c #10B44B829658",
"m c #21CD58789E0C",
"u c #21CD58789E0C",
"o c #431572DBAFAA",
"e c #591980FCB3BF",
"q c #A202AD56BBC0",
"f c #a0a0a4",
"p c #98ABA9EBBFE0",
"d c #A94FB766C955",
"b c #B955C43CD21B",
"i c #C8BFD0FEDB7D",
"n c #c0ffc0",
"a c #B955C43CD21B",
"s c #cab2ca",
"# c #B955C43CD21B",
"g c #dcdcdc",
"r c #FED25A",
"h c #ffffff",
"........cccccccc........",
"......ccccghhgcccc......",
"....ccjjchhcchhccjcc....",
"...cjjjcghchhhhgcjjjc...",
"..cjjjjchhhhhhhhcjjjjc..",
"..cjjjjchhhhhhhhcklkjmc.",
".cjjjjmcghhhhhhgcnlkoc..",
".cjjjjqcchhhhhhcclkc....",
"cjjjjcrrccghhgcccksr....",
"cjjjjcrrlcccccccccrr....",
"jjjjcrrlnlcccccccccr....",
"jjjjcrlnttlkntlccccc....",
"jjjjcrkltttntkkrccccc...",
"jjjjcrkklttttlkrrccccc..",
"cjjjjcrkklttlkrrrrcccc..",
"cjjjjcrrkkltlkrrrrscc...",
".cjjjjqrrkklkrrrrquc....",
".cjjjjmqrrkkkrrrqmjjo...",
"..cjjjjjccrkrrccjjjjjmc.",
"..cjjjjjjjccccjjjjjjjc..",
"...cjjjjjjjjjjjjjjjjc...",
"....ccjjjjjjjjjjjjcc....",
"......ccjjjjjjjjcc......",
"........ccjjjjcc........"};
