/* XPM */
static char *ciaopreproc[]={
"24 24 19 1",
". c None",
"h c #008000",
"i c #00c000",
"p c #00ff00",
"c c #10B44B829658",
"j c #21CD58789E0C",
"q c #21CD58789E0C",
"m c #431572DBAFAA",
"e c #591980FCB3BF",
"k c #A202AD56BBC0",
"n c #98ABA9EBBFE0",
"d c #A94FB766C955",
"b c #B955C43CD21B",
"f c #C8BFD0FEDB7D",
"l c #c0ffc0",
"a c #B955C43CD21B",
"o c #cab2ca",
"# c #B955C43CD21B",
"g c #FED25A",
"........cccccccc........",
"......cccccccccccc......",
"....cccccccccccccccc....",
"...cccccccccccccccccc...",
"..cccccccccccccccccccc..",
"..ccccccccggggccchihccc.",
".cccccjkggggggggilihcc..",
".ccccckggggggggilihc....",
"ccccccggggggggilihog....",
"ccccccggiggggilihggg....",
"cccccggiliggilhhgggg....",
"cccccgilppihlpihgggg....",
"cccccghippplphhggggg....",
"cccccghhippppihggggg....",
"ccccccghhippihgggggg....",
"ccccccgghhipihggggog....",
".ccccckgghhihggggkqc....",
".cccccjkgghhhgggkjccc...",
"..ccccccccghggccccccccc.",
"..cccccccccccccccccccc..",
"...cccccccccccccccccc...",
"....cccccccccccccccc....",
"......cccccccccccc......",
"........cccccccc........"};
