/* XPM */
static char *ciaoload[]={
"24 24 28 1",
". c None",
"s c #008000",
"h c #371710",
"l c #6e1e00",
"o c #767637",
"v c #7b2b00",
"g c #7e6e7e",
"p c #7f3f00",
"c c #10B44B829658",
"y c #808000",
"i c #21CD58789E0C",
"q c #894900",
"r c #21CD58789E0C",
"z c #431572DBAFAA",
"e c #591980FCB3BF",
"u c #AB5201",
"j c #A202AD56BBC0",
"k c #a5a5a5",
"n c #98ABA9EBBFE0",
"d c #A94FB766C955",
"b c #B955C43CD21B",
"f c #C8BFD0FEDB7D",
"m c #C36200",
"a c #B955C43CD21B",
"x c #cab2ca",
"# c #B955C43CD21B",
"w c #DEA537",
"t c #FED25A",
"........cccccccc........",
"......cccccccccccc......",
"....cccccccccccccccc....",
"...cccccccccccccccccc...",
"..cccccccccccccccccccc..",
"..ccccccccghhgccccccccc.",
".cccccijk.lmml.kjicccc..",
".cccccjopqlmmlqpojrs....",
"cccccckptuvwwvutpkxss...",
"cccccc.quttttttuq..sss..",
"cccccgllvttttttvl..ssss.",
"ccccchyytttsssssssssssss",
"ccccchyytttsssssssssssss",
"cccccgllvttttttvl..ssss.",
"cccccc.quttttttuq..sss..",
"cccccckptuvwwvutpkxss...",
".cccccjopqlmmlqpojrss...",
".cccccijk.lmml.kjicsz...",
"..ccccccccghhgcccccccic.",
"..cccccccccccccccccccc..",
"...cccccccccccccccccc...",
"....cccccccccccccccc....",
"......cccccccccccc......",
"........cccccccc........"};
