/* XPM */
static char *ciaoexe[]={
"24 24 26 1",
". c None",
"h c #371710",
"l c #6e1e00",
"p c #767637",
"v c #7b2b00",
"g c #7e6e7e",
"q c #7f3f00",
"c c #10B44B829658",
"i c #21CD58789E0C",
"r c #894900",
"s c #21CD58789E0C",
"n c #431572DBAFAA",
"e c #591980FCB3BF",
"u c #AB5201",
"j c #A202AD56BBC0",
"k c #a5a5a5",
"o c #98ABA9EBBFE0",
"d c #A94FB766C955",
"b c #B955C43CD21B",
"f c #C8BFD0FEDB7D",
"m c #C36200",
"a c #B955C43CD21B",
"x c #cab2ca",
"# c #B955C43CD21B",
"w c #DEA537",
"t c #FED25A",
"........cccccccc........",
"......cccccccccccc......",
"....cccccccccccccccc....",
"...cccccccccccccccccc...",
"..cccccccccccccccccccc..",
"..ccccccccghhgccccccccc.",
".cccccijk.lmml.kjicccc..",
".cccccjpqrlmmlrqpjsc....",
"cccccckqtuvwwvutqkx.....",
"cccccc.ruttttttur.......",
"cccccgllvttttttvllr.....",
"ccccchmmwttttttwmmh.....",
"ccccchmmwttttttwmmh.....",
"cccccgllvttttttvllr.....",
"cccccc.ruttttttur.......",
"cccccckqtuvwwvutqkx.....",
".cccccjpqrlmmlrqpjsc....",
".cccccijk.lmml.kjiccc...",
"..ccccccccghhgccccccccc.",
"..cccccccccccccccccccc..",
"...cccccccccccccccccc...",
"....cccccccccccccccc....",
"......cccccccccccc......",
"........cccccccc........"};
